<mxfile host="app.diagrams.net" modified="2023-04-23T15:23:24.256Z" agent="Mozilla/5.0 (Macintosh; Intel Mac OS X 10_15_7) AppleWebKit/537.36 (KHTML, like Gecko) Chrome/112.0.0.0 Safari/537.36" etag="VEarHc4ZUV7HS4-QeNIO" version="21.2.1" type="device">
  <diagram name="Page-1" id="t-cwBaWs2mbu1gENMcHj">
    <mxGraphModel dx="930" dy="650" grid="1" gridSize="10" guides="1" tooltips="1" connect="1" arrows="1" fold="1" page="1" pageScale="1" pageWidth="850" pageHeight="1100" math="0" shadow="0">
      <root>
        <mxCell id="0" />
        <mxCell id="1" parent="0" />
        <mxCell id="ElM-l6UvzSeE2IFWCplJ-13" style="edgeStyle=orthogonalEdgeStyle;rounded=0;orthogonalLoop=1;jettySize=auto;html=1;entryX=0;entryY=0.5;entryDx=0;entryDy=0;" parent="1" source="ElM-l6UvzSeE2IFWCplJ-2" target="ElM-l6UvzSeE2IFWCplJ-12" edge="1">
          <mxGeometry relative="1" as="geometry" />
        </mxCell>
        <mxCell id="ElM-l6UvzSeE2IFWCplJ-16" style="edgeStyle=orthogonalEdgeStyle;rounded=0;orthogonalLoop=1;jettySize=auto;html=1;entryX=0;entryY=0.5;entryDx=0;entryDy=0;" parent="1" source="ElM-l6UvzSeE2IFWCplJ-2" target="ElM-l6UvzSeE2IFWCplJ-15" edge="1">
          <mxGeometry relative="1" as="geometry" />
        </mxCell>
        <mxCell id="ElM-l6UvzSeE2IFWCplJ-17" style="edgeStyle=orthogonalEdgeStyle;rounded=0;orthogonalLoop=1;jettySize=auto;html=1;" parent="1" source="ElM-l6UvzSeE2IFWCplJ-2" target="ElM-l6UvzSeE2IFWCplJ-14" edge="1">
          <mxGeometry relative="1" as="geometry" />
        </mxCell>
        <mxCell id="ElM-l6UvzSeE2IFWCplJ-19" style="edgeStyle=orthogonalEdgeStyle;rounded=0;orthogonalLoop=1;jettySize=auto;html=1;entryX=0;entryY=0.5;entryDx=0;entryDy=0;" parent="1" source="ElM-l6UvzSeE2IFWCplJ-2" target="ElM-l6UvzSeE2IFWCplJ-18" edge="1">
          <mxGeometry relative="1" as="geometry" />
        </mxCell>
        <mxCell id="ElM-l6UvzSeE2IFWCplJ-2" value="app" style="rounded=0;whiteSpace=wrap;html=1;" parent="1" vertex="1">
          <mxGeometry x="170" y="250" width="120" height="60" as="geometry" />
        </mxCell>
        <mxCell id="ElM-l6UvzSeE2IFWCplJ-8" style="edgeStyle=orthogonalEdgeStyle;rounded=0;orthogonalLoop=1;jettySize=auto;html=1;entryX=0.375;entryY=1.017;entryDx=0;entryDy=0;exitX=1;exitY=0.5;exitDx=0;exitDy=0;entryPerimeter=0;" parent="1" source="ElM-l6UvzSeE2IFWCplJ-3" target="ElM-l6UvzSeE2IFWCplJ-2" edge="1">
          <mxGeometry relative="1" as="geometry" />
        </mxCell>
        <mxCell id="ElM-l6UvzSeE2IFWCplJ-3" value="app.component.html" style="rounded=0;whiteSpace=wrap;html=1;" parent="1" vertex="1">
          <mxGeometry x="72" y="379" width="120" height="60" as="geometry" />
        </mxCell>
        <mxCell id="ElM-l6UvzSeE2IFWCplJ-10" style="edgeStyle=orthogonalEdgeStyle;rounded=0;orthogonalLoop=1;jettySize=auto;html=1;entryX=0.5;entryY=1;entryDx=0;entryDy=0;" parent="1" source="ElM-l6UvzSeE2IFWCplJ-4" target="ElM-l6UvzSeE2IFWCplJ-2" edge="1">
          <mxGeometry relative="1" as="geometry">
            <Array as="points">
              <mxPoint x="230" y="480" />
            </Array>
          </mxGeometry>
        </mxCell>
        <mxCell id="ElM-l6UvzSeE2IFWCplJ-4" value="app.component.ts" style="rounded=0;whiteSpace=wrap;html=1;" parent="1" vertex="1">
          <mxGeometry x="90" y="450" width="120" height="60" as="geometry" />
        </mxCell>
        <mxCell id="ElM-l6UvzSeE2IFWCplJ-11" style="edgeStyle=orthogonalEdgeStyle;rounded=0;orthogonalLoop=1;jettySize=auto;html=1;entryX=0.675;entryY=1.017;entryDx=0;entryDy=0;entryPerimeter=0;" parent="1" source="ElM-l6UvzSeE2IFWCplJ-5" target="ElM-l6UvzSeE2IFWCplJ-2" edge="1">
          <mxGeometry relative="1" as="geometry">
            <Array as="points">
              <mxPoint x="251" y="550" />
            </Array>
          </mxGeometry>
        </mxCell>
        <mxCell id="ElM-l6UvzSeE2IFWCplJ-5" value="app.module.ts" style="rounded=0;whiteSpace=wrap;html=1;" parent="1" vertex="1">
          <mxGeometry x="120" y="520" width="120" height="60" as="geometry" />
        </mxCell>
        <mxCell id="ElM-l6UvzSeE2IFWCplJ-12" value="directiva" style="rounded=0;whiteSpace=wrap;html=1;" parent="1" vertex="1">
          <mxGeometry x="400" y="170" width="120" height="60" as="geometry" />
        </mxCell>
        <mxCell id="ElM-l6UvzSeE2IFWCplJ-14" value="header" style="rounded=0;whiteSpace=wrap;html=1;" parent="1" vertex="1">
          <mxGeometry x="400" y="250" width="120" height="60" as="geometry" />
        </mxCell>
        <mxCell id="ElM-l6UvzSeE2IFWCplJ-15" value="footer" style="rounded=0;whiteSpace=wrap;html=1;" parent="1" vertex="1">
          <mxGeometry x="400" y="330" width="120" height="60" as="geometry" />
        </mxCell>
        <mxCell id="ElM-l6UvzSeE2IFWCplJ-20" style="edgeStyle=orthogonalEdgeStyle;rounded=0;orthogonalLoop=1;jettySize=auto;html=1;" parent="1" source="ElM-l6UvzSeE2IFWCplJ-18" target="ElM-l6UvzSeE2IFWCplJ-21" edge="1">
          <mxGeometry relative="1" as="geometry">
            <mxPoint x="460" y="540" as="targetPoint" />
          </mxGeometry>
        </mxCell>
        <mxCell id="ElM-l6UvzSeE2IFWCplJ-18" value="clientes&lt;br&gt;" style="rounded=0;whiteSpace=wrap;html=1;" parent="1" vertex="1">
          <mxGeometry x="400" y="400" width="120" height="60" as="geometry" />
        </mxCell>
        <mxCell id="ElM-l6UvzSeE2IFWCplJ-31" style="edgeStyle=orthogonalEdgeStyle;rounded=0;orthogonalLoop=1;jettySize=auto;html=1;entryX=0.45;entryY=-0.029;entryDx=0;entryDy=0;entryPerimeter=0;" parent="1" source="ElM-l6UvzSeE2IFWCplJ-21" target="ElM-l6UvzSeE2IFWCplJ-23" edge="1">
          <mxGeometry relative="1" as="geometry" />
        </mxCell>
        <UserObject label="clientes.component.ts" link="clientes.component.ts" id="ElM-l6UvzSeE2IFWCplJ-21">
          <mxCell style="rounded=0;whiteSpace=wrap;html=1;" parent="1" vertex="1">
            <mxGeometry x="370" y="540" width="180" height="70" as="geometry" />
          </mxCell>
        </UserObject>
        <mxCell id="ElM-l6UvzSeE2IFWCplJ-26" style="edgeStyle=orthogonalEdgeStyle;rounded=0;orthogonalLoop=1;jettySize=auto;html=1;" parent="1" source="ElM-l6UvzSeE2IFWCplJ-22" target="ElM-l6UvzSeE2IFWCplJ-24" edge="1">
          <mxGeometry relative="1" as="geometry" />
        </mxCell>
        <mxCell id="ElM-l6UvzSeE2IFWCplJ-32" value="lo importa" style="edgeStyle=orthogonalEdgeStyle;rounded=0;orthogonalLoop=1;jettySize=auto;html=1;" parent="1" source="ElM-l6UvzSeE2IFWCplJ-22" target="ElM-l6UvzSeE2IFWCplJ-24" edge="1">
          <mxGeometry relative="1" as="geometry" />
        </mxCell>
        <UserObject label="clientes.json.ts" link="clientes.component.ts" id="ElM-l6UvzSeE2IFWCplJ-22">
          <mxCell style="rounded=0;whiteSpace=wrap;html=1;" parent="1" vertex="1">
            <mxGeometry x="110" y="830" width="180" height="70" as="geometry" />
          </mxCell>
        </UserObject>
        <UserObject label="clientes.component.ts" link="clientes.component.ts" id="ElM-l6UvzSeE2IFWCplJ-23">
          <mxCell style="rounded=0;whiteSpace=wrap;html=1;" parent="1" vertex="1">
            <mxGeometry x="380" y="690" width="180" height="70" as="geometry" />
          </mxCell>
        </UserObject>
        <mxCell id="ElM-l6UvzSeE2IFWCplJ-27" style="edgeStyle=orthogonalEdgeStyle;rounded=0;orthogonalLoop=1;jettySize=auto;html=1;" parent="1" source="ElM-l6UvzSeE2IFWCplJ-24" target="ElM-l6UvzSeE2IFWCplJ-23" edge="1">
          <mxGeometry relative="1" as="geometry" />
        </mxCell>
        <mxCell id="ElM-l6UvzSeE2IFWCplJ-28" value="Se inyecta&amp;nbsp; y dispone de getClientes()" style="edgeLabel;html=1;align=center;verticalAlign=middle;resizable=0;points=[];" parent="ElM-l6UvzSeE2IFWCplJ-27" vertex="1" connectable="0">
          <mxGeometry y="-2" relative="1" as="geometry">
            <mxPoint as="offset" />
          </mxGeometry>
        </mxCell>
        <UserObject label="cliente.service.ts" link="clientes.component.ts" id="ElM-l6UvzSeE2IFWCplJ-24">
          <mxCell style="rounded=0;whiteSpace=wrap;html=1;" parent="1" vertex="1">
            <mxGeometry x="380" y="830" width="180" height="70" as="geometry" />
          </mxCell>
        </UserObject>
        <mxCell id="DISi9tDJQXW6SOGR336k-2" style="edgeStyle=orthogonalEdgeStyle;rounded=0;orthogonalLoop=1;jettySize=auto;html=1;" parent="1" source="DISi9tDJQXW6SOGR336k-1" target="DISi9tDJQXW6SOGR336k-3" edge="1">
          <mxGeometry relative="1" as="geometry">
            <mxPoint x="969.9999999999998" y="200" as="targetPoint" />
          </mxGeometry>
        </mxCell>
        <mxCell id="DISi9tDJQXW6SOGR336k-23" style="edgeStyle=orthogonalEdgeStyle;rounded=0;orthogonalLoop=1;jettySize=auto;html=1;entryX=0.25;entryY=0;entryDx=0;entryDy=0;" parent="1" source="DISi9tDJQXW6SOGR336k-1" target="DISi9tDJQXW6SOGR336k-13" edge="1">
          <mxGeometry relative="1" as="geometry" />
        </mxCell>
        <mxCell id="DISi9tDJQXW6SOGR336k-1" value="Entity cliente" style="rounded=0;whiteSpace=wrap;html=1;" parent="1" vertex="1">
          <mxGeometry x="720" y="170" width="120" height="60" as="geometry" />
        </mxCell>
        <mxCell id="DISi9tDJQXW6SOGR336k-3" value="BD Docker" style="rounded=0;whiteSpace=wrap;html=1;" parent="1" vertex="1">
          <mxGeometry x="909.9999999999998" y="170" width="120" height="60" as="geometry" />
        </mxCell>
        <mxCell id="DISi9tDJQXW6SOGR336k-14" style="edgeStyle=orthogonalEdgeStyle;rounded=0;orthogonalLoop=1;jettySize=auto;html=1;entryX=0.379;entryY=-0.01;entryDx=0;entryDy=0;entryPerimeter=0;" parent="1" source="DISi9tDJQXW6SOGR336k-5" target="DISi9tDJQXW6SOGR336k-13" edge="1">
          <mxGeometry relative="1" as="geometry" />
        </mxCell>
        <mxCell id="DISi9tDJQXW6SOGR336k-15" value="AutoWired" style="edgeLabel;html=1;align=center;verticalAlign=middle;resizable=0;points=[];" parent="DISi9tDJQXW6SOGR336k-14" vertex="1" connectable="0">
          <mxGeometry x="-0.2632" y="2" relative="1" as="geometry">
            <mxPoint as="offset" />
          </mxGeometry>
        </mxCell>
        <mxCell id="DISi9tDJQXW6SOGR336k-5" value="IclienteDao" style="rounded=0;whiteSpace=wrap;html=1;" parent="1" vertex="1">
          <mxGeometry x="820" y="270" width="120" height="60" as="geometry" />
        </mxCell>
        <mxCell id="DISi9tDJQXW6SOGR336k-8" style="edgeStyle=orthogonalEdgeStyle;rounded=0;orthogonalLoop=1;jettySize=auto;html=1;entryX=1;entryY=0.5;entryDx=0;entryDy=0;" parent="1" source="DISi9tDJQXW6SOGR336k-7" target="DISi9tDJQXW6SOGR336k-5" edge="1">
          <mxGeometry relative="1" as="geometry" />
        </mxCell>
        <mxCell id="DISi9tDJQXW6SOGR336k-7" value="extends CrudRepository&amp;lt;Cliente,Long&amp;gt;" style="rounded=0;whiteSpace=wrap;html=1;" parent="1" vertex="1">
          <mxGeometry x="990" y="270" width="210" height="60" as="geometry" />
        </mxCell>
        <mxCell id="DISi9tDJQXW6SOGR336k-18" style="edgeStyle=orthogonalEdgeStyle;rounded=0;orthogonalLoop=1;jettySize=auto;html=1;entryX=0;entryY=0.5;entryDx=0;entryDy=0;" parent="1" source="DISi9tDJQXW6SOGR336k-9" target="DISi9tDJQXW6SOGR336k-17" edge="1">
          <mxGeometry relative="1" as="geometry" />
        </mxCell>
        <mxCell id="DISi9tDJQXW6SOGR336k-20" value="AutoWired" style="edgeLabel;html=1;align=center;verticalAlign=middle;resizable=0;points=[];" parent="DISi9tDJQXW6SOGR336k-18" vertex="1" connectable="0">
          <mxGeometry x="-0.1438" y="-3" relative="1" as="geometry">
            <mxPoint as="offset" />
          </mxGeometry>
        </mxCell>
        <mxCell id="DISi9tDJQXW6SOGR336k-21" style="edgeStyle=orthogonalEdgeStyle;rounded=0;orthogonalLoop=1;jettySize=auto;html=1;" parent="1" source="DISi9tDJQXW6SOGR336k-9" target="DISi9tDJQXW6SOGR336k-13" edge="1">
          <mxGeometry relative="1" as="geometry" />
        </mxCell>
        <mxCell id="DISi9tDJQXW6SOGR336k-22" value="Entrega:&lt;br&gt;Metodos vacíos" style="edgeLabel;html=1;align=center;verticalAlign=middle;resizable=0;points=[];" parent="DISi9tDJQXW6SOGR336k-21" vertex="1" connectable="0">
          <mxGeometry x="0.061" relative="1" as="geometry">
            <mxPoint x="-1" as="offset" />
          </mxGeometry>
        </mxCell>
        <mxCell id="DISi9tDJQXW6SOGR336k-9" value="IClienteServices&lt;br&gt;&lt;br&gt;Metodos:&lt;br&gt;List&amp;lt;Cliente&amp;gt; findAll();&lt;br&gt;&lt;br&gt;&lt;div&gt;public Cliente findById(long id);&lt;/div&gt;&lt;div&gt;&lt;br&gt;&lt;/div&gt;&lt;div&gt;&amp;nbsp; &amp;nbsp; public Cliente save(Cliente cliente);&lt;/div&gt;&lt;div&gt;&lt;br&gt;&lt;/div&gt;&lt;div&gt;&amp;nbsp; &amp;nbsp; public void delete(long id);&lt;/div&gt;&lt;div&gt;&lt;br&gt;&lt;/div&gt;" style="rounded=0;whiteSpace=wrap;html=1;" parent="1" vertex="1">
          <mxGeometry x="630" y="580" width="280" height="230" as="geometry" />
        </mxCell>
        <mxCell id="DISi9tDJQXW6SOGR336k-13" value="class ClienteServiceImp implements IclienteServices&lt;br&gt;@Overwrite&lt;br&gt;Metodos&amp;nbsp;" style="rounded=0;whiteSpace=wrap;html=1;" parent="1" vertex="1">
          <mxGeometry x="615" y="385" width="295" height="90" as="geometry" />
        </mxCell>
        <mxCell id="DISi9tDJQXW6SOGR336k-17" value="&lt;div&gt;@RestController&amp;nbsp;&lt;/div&gt;&lt;div&gt;&lt;br&gt;&lt;/div&gt;&lt;div&gt;Implementamos los metodos&amp;nbsp;&lt;/div&gt;&lt;div&gt;llama al IClienteServices para usar los metodos&lt;/div&gt;" style="rounded=0;whiteSpace=wrap;html=1;" parent="1" vertex="1">
          <mxGeometry x="980" y="575" width="250" height="130" as="geometry" />
        </mxCell>
      </root>
    </mxGraphModel>
  </diagram>
</mxfile>
